<svg style="max-height: 500px" xml:space="preserve" viewBox="647.2 561.5 676 652" y="0px" x="0px" id="Layer_1" version="1.1" xmlns:xlink="http://www.w3.org/1999/xlink" xmlns="http://www.w3.org/2000/svg" width="676" height="652">

<g>
	<g>
		<g>
			<g>
				<path d="M887.513,801.828c14.466-10.534,30.57-18.978,47.84-24.841c18.328-6.264,37.98-9.657,58.419-9.657h1.661      c20.079,0,39.417,3.28,57.453,9.32c17.339,5.796,33.487,14.151,48.018,24.595c13.206,9.477,25.066,20.707,35.261,33.329h152.749      l-97.339-19.024h-0.023c-15.834-23.335-35.711-43.706-58.644-60.079l25.785-36.834c28.57-40.787-0.628-96.825-50.4-96.825      H879.721c-49.793,0-78.97,56.038-50.423,96.825l26.189,37.419c-22.595,16.282-42.179,36.43-57.812,59.494h-0.023l-85.482,19.024      h140.867C863.033,822.199,874.623,811.172,887.513,801.828z M874.128,689.527c-4.2-5.995,0.113-14.259,7.434-14.259h224.866      c7.323,0,11.635,8.264,7.434,14.259l-27.916,39.89c-27.873-11.566-58.464-17.923-90.514-17.923h-1.661      c-32.41,0-63.337,6.513-91.457,18.306L874.128,689.527z" fill="#FF0000"/>
			</g>
			<path d="M1113.571,1079.937c-14.464,10.533-30.567,18.978-47.839,24.84c-18.328,6.267-37.979,9.658-58.417,9.658     h-1.663c-20.078,0-39.416-3.279-57.451-9.321c-17.338-5.793-33.488-14.151-48.018-24.594     c-13.207-9.477-25.066-20.707-35.263-33.33H712.171l97.34,19.024h0.023c15.834,23.336,35.711,43.707,58.643,60.079     c14.508,10.378,30.252,19.137,46.962,26.055c27.874,11.566,58.463,17.923,90.513,17.923h1.663     c32.408,0,63.337-6.516,91.456-18.306c16.666-6.985,32.366-15.812,46.829-26.255c22.593-16.284,42.179-36.431,57.812-59.497     h0.022l85.481-19.024h-140.866C1138.053,1059.566,1126.463,1070.595,1113.571,1079.937z" fill="#FF0000"/>
		</g>
		<g>
			<g>
				<path d="M915.744,964.094c-1.807-3.885-3.561-7.84-5.228-11.867h-75.365c0.293,9.625,1.038,17.411,2.001,21.159      c0.399,1.558,0.838,2.433,1.298,2.433c0.587,0,1.138-1.409,1.622-3.876c0.333-1.705,0.632-3.933,0.888-6.547h75.424      C916.174,964.96,915.953,964.534,915.744,964.094z" fill="#FFFFFF"/>
				<path d="M828.795,943.044c0-25.719,2.931-46.569,6.548-46.569c0.225,0,0.45,0.096,0.67,0.256      c-1.669-17.949-4.28-29.521-7.219-29.521c-5.037,0-9.119,33.953-9.119,75.834c0,41.882,4.083,75.833,9.119,75.833      c2.939,0,5.55-11.571,7.219-29.523c-0.221,0.161-0.444,0.258-0.67,0.258C831.725,989.614,828.795,968.765,828.795,943.044z" fill="#FFFFFF"/>
				<path d="M835.014,942.638c0,0.137,0.015,3.82,0.043,5.474h73.806c-0.55-1.409-1.094-2.823-1.612-4.255      l-0.023-0.05c-0.136-0.386-0.271-0.78-0.408-1.169H835.014z" fill="#FFFFFF"/>
				<path d="M902.373,927.005c-0.376-1.918-0.692-3.885-0.92-5.91l-0.024-0.222v-0.181H840.96      c-0.279-2.844-0.61-5.205-0.979-6.96c-0.461-2.195-0.98-3.462-1.53-3.462c-0.459,0-0.898,0.876-1.298,2.433      c-0.722,2.81-1.32,7.882-1.7,14.302H902.373z" fill="#FFFFFF"/>
				<path d="M809.759,899.499h-29.434c-0.144,1.781-0.284,3.597-0.41,5.473h29.431      C809.474,903.097,809.612,901.28,809.759,899.499z" fill="#FFFFFF"/>
				<path d="M811.741,881.698c0.783-4.986,1.615-9.186,2.745-12.833c0.671-2.125,1.362-4.039,2.703-6.256      c0.713-1.178,1.636-2.493,3.301-3.902c0.529-0.437,1.153-0.877,1.869-1.292h-29.363h-0.069      c-0.714,0.414-1.339,0.855-1.869,1.292c-1.664,1.409-2.587,2.724-3.302,3.902c-1.339,2.216-2.031,4.131-2.7,6.256      c-1.131,3.647-1.964,7.847-2.747,12.833c-0.107,0.705-0.21,1.435-0.312,2.167h29.433      C811.532,883.133,811.634,882.402,811.741,881.698z" fill="#FFFFFF"/>
				<path d="M819.196,1026.134c-1.685-1.846-2.468-3.393-3.184-4.871c-0.464-0.993-0.831-1.963-1.178-2.932      c-0.438-1.339-0.831-2.701-1.201-4.132c-0.461-1.939-0.898-3.993-1.292-6.256c-0.531-2.977-1.016-6.301-1.454-9.902      c-1.73-14.381-2.748-33.657-2.748-54.986c0-12.172,0.341-23.658,0.951-33.969h-29.433c-0.608,10.31-0.949,21.796-0.949,33.969      c0,21.329,1.017,40.604,2.748,54.986c0.438,3.602,0.924,6.926,1.453,9.902c0.395,2.263,0.832,4.317,1.294,6.256      c0.369,1.431,0.762,2.793,1.199,4.132c0.347,0.969,0.715,1.939,1.179,2.932c0.714,1.478,1.5,3.024,3.185,4.871      c0.762,0.831,1.798,1.755,3.23,2.561h29.433C820.997,1027.89,819.959,1026.965,819.196,1026.134z" fill="#FFFFFF"/>
				<path d="M769.353,914.446h-22.21c-0.071,1.794-0.133,3.62-0.191,5.474h22.206      C769.218,918.066,769.28,916.239,769.353,914.446z" fill="#FFFFFF"/>
				<path d="M749.582,881.698c-0.631,4.99-1.163,10.748-1.602,17.113h22.209c0.44-6.366,0.973-12.123,1.604-17.113      c0.437-3.338,0.9-6.297,1.434-9.002h-22.208C750.483,875.4,750.02,878.36,749.582,881.698z" fill="#FFFFFF"/>
				<path d="M771.08,998.041c-1.442-14.381-2.288-33.657-2.288-54.986c0-6.571,0.089-12.924,0.243-19.021h-22.209      c-0.155,6.097-0.242,12.45-0.242,19.021c0,21.329,0.846,40.604,2.287,54.986c0.366,3.602,0.768,6.926,1.211,9.902      c0.284,1.958,0.599,3.741,0.929,5.45h22.206c-0.327-1.708-0.642-3.491-0.925-5.45      C771.85,1004.967,771.446,1001.643,771.08,998.041z" fill="#FFFFFF"/>
				<path d="M737.085,938.845h-18.749c-0.008,1.405-0.024,2.785-0.024,4.211c0,17.422,0.572,33.424,1.564,46.558      h18.748c-0.991-13.134-1.564-29.136-1.564-46.558C737.06,941.63,737.078,940.25,737.085,938.845z" fill="#FFFFFF"/>
				<path d="M737.867,908.685c0.216-4.3,0.468-8.37,0.756-12.209h-18.748c-0.288,3.84-0.541,7.91-0.754,12.209      c-0.08,1.6-0.144,3.281-0.214,4.938h18.748C737.725,911.966,737.788,910.285,737.867,908.685z" fill="#FFFFFF"/>
				<path d="M737.196,929.257H718.45c-0.035,1.814-0.068,3.619-0.088,5.473h18.746      C737.13,932.876,737.165,931.071,737.196,929.257z" fill="#FFFFFF"/>
				<path d="M695,920.692c-0.216,7.105-0.345,14.571-0.345,22.364c0,7.77,0.116,15.254,0.329,22.341h14.133      c-0.213-7.088-0.327-14.571-0.327-22.341c0-7.792,0.127-15.259,0.344-22.364H695z" fill="#FFFFFF"/>
				<path d="M1172.292,867.211c-2.941,0-5.554,11.577-7.221,29.535c0.221-0.161,0.446-0.27,0.672-0.27      c3.618,0,6.55,20.85,6.55,46.569c0,25.721-2.931,46.569-6.55,46.569c-0.225,0-0.447-0.086-0.669-0.248      c1.668,17.945,4.28,29.512,7.219,29.512c5.036,0,9.119-33.951,9.119-75.833C1181.412,901.164,1177.328,867.211,1172.292,867.211      z" fill="#FFFFFF"/>
				<path d="M1166.073,942.638h-78.066c-0.066-1.422-0.119-2.847-0.204-4.271c-0.206-3.786-0.517-7.575-0.877-11.363      h78.707c-0.38-6.419-0.978-11.493-1.7-14.302c-0.401-1.557-0.838-2.433-1.297-2.433c-0.901,0-1.715,3.318-2.327,8.707      c-0.063,0.552-0.125,1.121-0.182,1.716h-65.087c1.333-3.688,2.632-7.384,3.91-11.087c0.254-0.737,0.525-1.466,0.777-2.205      l2.618-7.573c0.422-1.154,0.989-2.806,0.978-4.346c0.041-1.569-0.292-3.158-0.97-4.601c-0.337-0.721-0.756-1.409-1.253-2.035      l-1.256-1.59l-2.488-3.142l-5-6.267l-10.074-12.471l-10.168-12.388l-5.118-6.167l-2.608-3.098      c-0.98-1.12-2.025-2.191-3.172-3.143c-4.52-3.874-10.311-6.372-16.37-6.673c-3.016-0.185-6.076,0.184-8.979,1.055      c-2.234,0.681-4.478,1.747-6.46,3.289c-2.052-0.988-4.063-1.683-6.247-2.209c-2.848-0.667-5.811-0.982-8.777-0.759      c-2.961,0.206-5.903,0.958-8.586,2.219c-2.099,0.991-4.015,2.29-5.737,3.769c-2.594-2.271-5.42-4.008-8.584-5.264      c-3.781-1.467-7.997-1.989-11.991-1.252c-4.01,0.672-7.681,2.498-10.812,4.853c-2.832,2.053-5.279,4.517-7.489,7.149      c-2.286-2.519-5.432-4.115-8.855-4.258c-3.886-0.16-7.594,1.722-10.114,4.527c-4.553,5.42-8.904,10.832-13.245,16.359      c-4.298,5.536-8.468,11.184-12.456,16.991c-3.938,5.834-7.79,11.78-10.926,18.243c-1.568,3.229-2.998,6.569-4.04,10.175      c-0.526,1.798-0.931,3.681-1.099,5.69c-0.193,2.07-0.034,3.876,0.105,5.772c0.016,0.148,0.051,0.288,0.069,0.435      c0.254,2.15,0.638,4.246,1.091,6.313c1.072,4.902,2.587,9.614,4.234,14.24c0.17,0.467,0.356,0.926,0.529,1.394      c0.684,1.84,1.4,3.664,2.138,5.474c0.561,1.378,1.13,2.751,1.717,4.115c1.245,2.89,2.538,5.757,3.876,8.598      c0.722,1.534,1.457,3.057,2.201,4.572c1.972,4.006-1.867-2.393,0.336,1.534c-3.44,3.801-14.792,16.524-14.792,16.524      c-0.744,0.841-1.345,1.816-1.791,2.852c-0.896,2.074-1.112,4.418-0.607,6.605c0.248,1.093,0.668,2.15,1.239,3.114      c0.289,0.482,0.608,0.941,0.965,1.369l0.768,0.902l11.848,13.587l5.942,6.781l3.089,3.481c1.475,1.538,3.443,2.587,5.519,2.954      c2.074,0.377,4.261,0.066,6.137-0.846l4.069-2.19l7.906-4.338l7.886-4.373c2.416-1.429,4.949-2.231,7.685-2.429      c3.173-0.095,6.513-1.016,9.336-2.579c2.865-1.563,5.253-3.872,7.016-6.531c1.788-2.652,2.865-5.731,3.191-8.846      c0.207-1.554,0.103-3.139,0.024-4.615l-0.231-4.304c5.913,1.264,15.066,5.519,19.414,2.794      c3.994-2.473,7.848-5.137,11.667-7.846c2.698,0.638,5.429,1.155,8.174,1.59l2.634,0.356c1.226,0.111,2.46-0.118,3.546-0.602      c1.076-0.436,2.105-1.38,2.544-1.865l1.728-1.724c2.315-2.287,4.684-4.505,7.147-6.607c1.96-1.648,3.98-3.218,6.034-4.748      c0.291-0.217,0.576-0.438,0.869-0.653c0.289,0.214,0.568,0.437,0.854,0.653c2.565,1.934,5.073,3.952,7.572,5.984      c0.282,0.257,1.008,0.772,1.595,1.032c0.631,0.298,1.309,0.51,2.012,0.617c1.399,0.212,2.903,0.031,4.232-0.606      c0.753-0.376,1.082-0.602,1.508-0.838l0.163-0.093l1.091-0.623l2.473-1.484l6.449-3.988h86.471      c0.455,4.651,1.051,8.028,1.724,9.53c0.252,0.563,0.516,0.893,0.786,0.893c0.458,0,0.896-0.876,1.297-2.435      c0.964-3.747,1.708-11.534,2.003-21.158h-77.645c-0.016-1.371-0.043-2.742-0.079-4.115h77.817      C1166.057,946.458,1166.073,942.775,1166.073,942.638z M1044.962,962.298c-1.199,1.057-2.42,2.089-3.656,3.099      c-1.27,1.037-2.556,2.05-3.864,3.038c-2.597,1.934-5.289,3.747-8.036,5.495c-1.329,0.772-2.967,2.053-3.602,2.01      c-0.436,0.068-0.862,0-1.236-0.118l-2.104-0.696c-2.851-0.872-5.721-1.664-8.628-2.291l-1.547-7.439l-1.577-7.595l-0.254,7.595      l-0.267,8.055c-3.967,3.086-7.897,6.225-11.671,9.575c-3.791,3.328-12.674,0.544-16.845,0.231      c-1.87-4.467-4.549-8.136-7.496-11.526c-1.525-1.725-3.257-3.233-5.093-4.623c-0.978-0.827-2.171-1.518-3.439-2.048      c-0.125-1.196-0.258-2.386-0.408-3.578c-0.396-3.104-0.893-6.195-1.553-9.255c-0.297-1.378-0.64-2.748-1.021-4.115      c-0.165-0.589-0.309-1.183-0.495-1.77c-0.34-1.236-0.702-2.469-1.048-3.704c-0.352-1.255-0.687-2.514-0.966-3.782      c-0.542-2.519-0.988-5.054-1.295-7.613c-0.17-1.407-0.305-2.821-0.428-4.238c-0.182-2.102-0.339-4.21-0.521-6.313      c-0.125-1.448-0.267-2.896-0.441-4.335l2.944-10.048c0.978-3.46,1.799-6.958,2.549-10.474c0.718-3.482,1.385-6.98,1.942-10.505      h4.065c0,0-1.759,13.771-1.759,27.666c0,0,11.37-1.981,31.383-1.091c0,0-0.299-15.751,0.865-27.07l2.122,0.032      c0.148,1.976,0.366,3.946,0.737,5.898c0.651,3.331,1.765,6.613,2.258,9.962c0.518,3.345,0.643,6.729,0.578,10.133      c-0.085,3.292-0.055,6.569,0.162,9.831c0.009,0.113,0.005,0.226,0.014,0.339c0.083,1.994,0.178,3.985,0.298,5.973      c0.083,1.386,0.174,2.769,0.314,4.149c0.452,3.841,1.038,7.672,1.818,11.485c0.374,1.83,0.812,3.654,1.301,5.474      c0.273,1.016,0.528,2.031,0.843,3.042l0.46-0.04c0.131-1.003,0.203-2.001,0.296-3.002c0.171-1.827,0.289-3.654,0.347-5.474      c0.131-3.996,0.054-7.977-0.162-11.944c-0.1-1.233-0.229-2.461-0.359-3.689c-0.221-2.108-0.473-4.215-0.793-6.313      c-0.518-3.378-1.177-6.74-2.024-10.082c-0.794-3.32-1.396-6.657-1.605-10.033c-0.234-3.377,0.151-6.816,0.074-10.208      c-0.051-1.823-0.228-3.635-0.471-5.439l3.501,0.053c0,0,3.244,20.012,3.839,26.627c0,0,9.733-3.121,24.893,0.767      c0,0-0.322-22.093-0.917-29.027l2.505,0.041c0.257,2.847,0.601,5.682,1.174,8.488c0.873,4.123,2.137,8.197,2.739,12.357      c0.651,4.151,0.906,8.353,0.976,12.578l-0.012-0.172c-0.161,1.352-0.271,2.7-0.385,4.049c-0.181,2.103-0.32,4.21-0.405,6.313      c-0.019,0.429-0.054,0.86-0.068,1.289c-0.182,3.882-0.313,7.764-0.24,11.649c0.026,0.898,0.075,1.798,0.109,2.696      c0.071,1.825,0.17,3.649,0.292,5.474c0.091,1.373,0.186,2.744,0.312,4.115c0.305,3.262,0.735,6.521,1.309,9.782      L1044.962,962.298z M1082.577,923.134c0,0-0.961,11.447-1.169,15.234c-0.085,1.424-0.137,2.848-0.203,4.271      c-0.086,1.825-0.155,3.649-0.206,5.474c-0.035,1.298-0.057,2.595-0.073,3.893c-0.109,0.074-0.214,0.149-0.322,0.222      c-2.521,1.74-5.007,3.531-7.492,5.325l-9.279,6.849l-1.309,0.995l-0.987,0.751l-2.041,1.62c-0.366,0.27-0.823,0.487-1.335,0.527      c-0.255,0.022-0.52,0.007-0.781-0.047c-0.309-0.084-0.407-0.08-0.913-0.369c-1.53-0.823-3.062-1.646-4.582-2.482      c-1.859-1.019-3.702-2.06-5.505-3.159l-0.246-0.15c0.58-3.287,1.013-6.574,1.32-9.861c0.127-1.371,0.223-2.742,0.313-4.115      c0.123-1.825,0.222-3.648,0.292-5.474c0.034-0.898,0.083-1.797,0.108-2.696c0.073-3.885-0.057-7.766-0.24-11.649      c-0.013-0.429-0.048-0.861-0.067-1.289c-0.086-2.103-0.224-4.21-0.405-6.313c-0.116-1.349-0.225-2.697-0.386-4.049l-0.012-0.169      c-0.99-4.11-1.79-8.242-2.198-12.423c-0.457-4.179-0.252-8.439-0.436-12.648c-0.138-2.669-0.477-5.313-0.896-7.943l2.2,0.037      c0,0,4.657,19.568,8.026,31.06h22.662c0,0-2.301-14.136-4.843-24.795l-0.008-0.001c-3.461-0.361-6.989-0.465-10.52-0.222      c3.236-0.952,6.586-1.59,9.986-2.006c-0.256-1.027-0.521-2.051-0.791-3.076c-1.725-0.037-3.458-0.006-5.192,0.113      c1.609-0.474,3.25-0.862,4.907-1.197c-0.341-1.255-0.691-2.495-1.055-3.719c-2.602-0.167-5.221-0.233-7.854-0.051      c2.395-0.706,4.86-1.196,7.351-1.601c-0.332-1.077-0.674-2.126-1.025-3.158c-3.397-0.346-6.861-0.449-10.328-0.211      c3.105-0.913,6.314-1.525,9.573-1.941c-0.311-0.851-0.627-1.688-0.95-2.486c-0.703-0.099-1.394-0.246-2.105-0.318      c-3.459-0.361-6.988-0.464-10.518-0.223c3.402-1,6.922-1.677,10.505-2.085c0.312-0.036,0.63-0.055,0.942-0.086      c-0.323-0.693-0.652-1.354-0.985-1.977c-1.306-0.234-2.613-0.461-3.945-0.596c-3.458-0.361-6.985-0.465-10.518-0.224      c1.559-0.457,3.15-0.831,4.752-1.158c0.265-0.053,0.53-0.111,0.798-0.162c1.635-0.312,3.287-0.575,4.956-0.765      c0.532-0.061,1.068-0.101,1.602-0.148l-7.221-8.5c-1.286-1.541-2.902-2.753-4.619-3.558c-1.692-0.81-3.507-1.24-5.226-1.213      c-0.958,0-1.918,0.126-2.877,0.377c-0.658,0.177-1.161,0.405-1.49,0.556c-0.303,0.178-0.404,0.28-0.429,0.302      c-4.141,4.141-10.603,4.873-15.551,1.794l-0.025,0.026l-0.329-0.202c-0.378-0.204-1.009-0.505-1.817-0.808      c-1.59-0.632-3.812-1.212-5.78-1.187c-1.186,0-2.299,0.176-3.434,0.58c-1.112,0.429-2.272,1.06-3.711,2.398      c-2.499,2.325-5.857,3.56-9.266,3.358c-3.356-0.176-6.511-1.691-8.759-4.19l-0.201-0.176c-0.201-0.226-0.606-0.604-1.137-1.009      c-1.036-0.858-2.601-1.844-4.09-2.373c-1.009-0.378-1.969-0.557-2.953-0.557c-1.161,0.029-2.425,0.203-4.367,1.239      c-1.92,1.034-4.568,3.03-7.7,6.892c-2.551,3.129-6.412,4.845-10.452,4.644c-3.433-0.177-6.59-1.741-8.812-4.291      c-1.819,2.241-4.403,5.476-7.384,9.348h-0.034c0,0-3.338,4.683-7.756,11.285c1.454,0.055,2.901,0.154,4.33,0.321      c3.583,0.408,7.102,1.083,10.506,2.085c-3.531-0.241-7.058-0.138-10.519,0.222c-2.343,0.237-4.626,0.684-6.867,1.225      c-0.25,0.38-0.5,0.758-0.752,1.145c1.218,0.062,2.432,0.15,3.632,0.29c3.581,0.41,7.102,1.085,10.504,2.085      c-3.531-0.242-7.059-0.137-10.518,0.222c-2.015,0.206-3.988,0.556-5.932,0.983c-0.3,0.471-0.602,0.946-0.903,1.422      c0.953,0.064,1.903,0.146,2.848,0.257c3.581,0.408,7.101,1.083,10.504,2.084c-3.531-0.242-7.061-0.138-10.518,0.222      c-1.658,0.167-3.294,0.422-4.907,0.742c-0.357,0.577-0.714,1.155-1.068,1.734c0.663,0.053,1.326,0.107,1.987,0.185      c3.581,0.408,7.1,1.084,10.504,2.085c-3.533-0.242-7.061-0.139-10.519,0.222c-1.29,0.131-2.558,0.354-3.825,0.578      c-0.395,0.666-0.786,1.328-1.171,1.989c0.336,0.033,0.675,0.053,1.008,0.093c3.581,0.41,7.101,1.084,10.505,2.086      c-3.531-0.241-7.06-0.14-10.52,0.221c-0.874,0.09-1.725,0.262-2.588,0.392c-0.363,0.646-0.718,1.286-1.063,1.919      c2.591-0.061,5.148,0.056,7.669,0.35c3.581,0.41,7.1,1.085,10.504,2.086c-3.533-0.242-7.061-0.137-10.519,0.224      c-3.459,0.351-6.852,1.033-10.046,2.038l-0.015-0.079c-1.158,2.346-2.106,4.506-2.756,6.37c0,0,0.371-0.025,1.015-0.05      c4.014-0.219,18.974-0.891,29.424,0.05c0,0,5.995-15.875,12.163-28.013l3.675,0.236c-1.091,3.139-2.096,6.301-3.048,9.476      c-1.012,3.451-1.951,6.918-2.733,10.427l-2.249,10.549l-0.107,0.501l0.077,0.338c0.307,1.399,0.655,2.792,1.019,4.182      c0.549,2.107,1.13,4.208,1.686,6.313c0.4,1.502,0.787,3.003,1.13,4.514c0.573,2.512,1.005,5.049,1.344,7.603      c0.15,1.166,0.246,2.341,0.332,3.516c0.104,1.404,0.19,2.809,0.296,4.212c0.016,0.424,0.065,0.841,0.089,1.262      c0.086,1.38,0.212,2.751,0.381,4.115c0.411,3.333,1.021,6.632,1.744,9.911c0.051,0.234,0.068,0.305,0.202,0.881      c-1.254,0.237-4.328,1.44-4.969,1.667c-0.691,0.241-1.313,0.512-1.985,0.895c-0.654,0.363-0.997,0.661-1.504,1.004l-5.633,3.984      c-3.386,2.481-6.802,4.904-10.154,7.425l-12.939,6.463c-2.211,0.993-4.719-0.582-4.791-3.003l-4.538,5.363      c-1.589,1.878-1.603,4.623-0.034,6.518l16.49,19.902c0,0,9.816-4.778,17.756-8.25l-13.719-10.804      c-0.885-0.697-1.09-1.949-0.446-2.872c2.32-3.332,8.66-10.698,20.989-13.755c1.051-0.258,2.136,0.336,2.497,1.355      c1.288,3.648,4.618,12.356,9.787,21.034c5.408-1.199,10.913-3.641,12.399-9.697c-0.076,0.843-0.172,1.676-0.315,2.478      c-0.55,2.826-1.765,5.489-3.542,7.679c-3.522,4.452-8.983,6.93-14.529,6.766c-3.275-0.004-6.679,0.867-9.535,2.328l-8.15,3.86      l-8.132,3.897l-3.96,1.906c-0.844,0.356-1.785,0.436-2.66,0.227c-0.877-0.208-1.659-0.691-2.23-1.355l-2.758-3.379l-5.712-6.975      l-11.454-13.923l-0.681-0.825l-0.321-0.478c-0.185-0.334-0.315-0.691-0.391-1.063c-0.16-0.743-0.06-1.539,0.255-2.216      c0.158-0.339,0.355-0.657,0.615-0.933l1.499-1.635l3.049-3.32c4.082-4.409,8.055-8.917,12.091-13.371l1.78-1.966l-1.334-2.369      c-1.956-3.475,2.026,3.359,0.139-0.184c-2.311-4.34-4.543-8.728-6.641-13.17c-0.646-1.367-1.283-2.737-1.902-4.115      c-0.814-1.813-1.595-3.641-2.355-5.474c-0.515-1.241-1.025-2.483-1.513-3.734c-1.509-3.92-2.86-7.906-3.92-11.9      c-0.558-2.106-1.025-4.21-1.365-6.313c-0.063-0.38-0.158-0.761-0.213-1.142c-0.455-3.299-0.414-6.075,0.44-9.275      c0.777-3.139,1.971-6.297,3.335-9.396c5.578-12.418,13.089-24.254,21.029-35.634c3.965-5.696,8.142-11.344,12.456-16.706      c2.032-2.45,5.179-3.994,8.315-3.897c3.127,0.052,6.261,1.836,8.03,4.346l0.822,1.169l0.894-1.077      c2.37-2.863,4.994-5.526,8-7.613c3-2.084,6.371-3.573,9.887-4.024c3.512-0.477,7.07,0.242,10.268,1.703      c3.164,1.454,6.173,3.749,8.357,6.248l1.347,1.542l1.613-1.386c1.875-1.614,3.945-2.937,6.166-3.822      c2.225-0.88,4.582-1.334,6.969-1.353c2.385-0.032,4.789,0.369,7.112,1.063c2.269,0.697,4.706,1.704,6.532,2.848l1.97,1.237      l1.699-1.641c1.474-1.422,3.485-2.391,5.702-3.037c2.221-0.647,4.546-0.914,6.86-0.753c4.624,0.303,9.199,2.108,12.829,5.136      c0.923,0.737,1.76,1.577,2.553,2.451l2.598,2.991l5.253,6.049l10.578,12.044l10.671,11.961l5.372,5.951l2.697,2.965l1.331,1.468      c0.363,0.396,0.675,0.838,0.937,1.309c0.516,0.947,0.852,2.011,0.929,3.114c0.088,1.151-0.115,2.104-0.504,3.484l-2.03,7.762      c-0.381,1.431-0.726,2.874-1.101,4.309c-0.832,3.199-1.66,6.398-2.451,9.606c0,0-6.95,0.026-7.191,0h-0.059l-3.051-22.277h-4.66      L1082.577,923.134z" fill="#FFFFFF"/>
				<path d="M1191.999,909.087c0.609,10.31,0.949,21.796,0.949,33.969c0,21.329-1.016,40.604-2.748,54.986      c-0.439,3.602-0.923,6.926-1.454,9.902c-0.393,2.263-0.832,4.317-1.292,6.256c-0.371,1.431-0.763,2.793-1.201,4.132      c-0.345,0.969-0.716,1.939-1.177,2.932c-0.715,1.478-1.501,3.024-3.186,4.871c-0.763,0.831-1.8,1.755-3.232,2.561h29.432      c1.43-0.805,2.469-1.73,3.232-2.561c1.685-1.846,2.47-3.393,3.185-4.871c0.461-0.993,0.831-1.963,1.178-2.932      c0.437-1.339,0.831-2.701,1.201-4.132c0.462-1.939,0.898-3.993,1.292-6.256c0.532-2.977,1.017-6.301,1.455-9.902      c1.73-14.381,2.746-33.657,2.746-54.986c0-12.172-0.339-23.658-0.949-33.969H1191.999z" fill="#FFFFFF"/>
				<path d="M1191.741,904.972h29.432c-0.129-1.875-0.268-3.692-0.413-5.473h-29.432      C1191.473,901.28,1191.612,903.097,1191.741,904.972z" fill="#FFFFFF"/>
				<path d="M1183.899,862.609c1.339,2.216,2.03,4.131,2.7,6.256c1.132,3.647,1.962,7.847,2.748,12.833      c0.106,0.705,0.209,1.435,0.311,2.167h29.432c-0.103-0.732-0.205-1.463-0.311-2.167c-0.784-4.986-1.615-9.186-2.748-12.833      c-0.667-2.125-1.36-4.039-2.7-6.256c-0.715-1.178-1.637-2.493-3.302-3.902c-0.53-0.437-1.154-0.877-1.869-1.292h-0.069h-29.363      c0.715,0.414,1.338,0.855,1.869,1.292C1182.26,860.115,1183.181,861.431,1183.899,862.609z" fill="#FFFFFF"/>
				<path d="M1231.927,919.919h22.21c-0.059-1.854-0.122-3.68-0.195-5.474h-22.208      C1231.805,916.239,1231.87,918.066,1231.927,919.919z" fill="#FFFFFF"/>
				<path d="M1230.899,898.811h22.209c-0.44-6.366-0.973-12.123-1.605-17.113c-0.438-3.338-0.898-6.297-1.434-9.002      h-22.21c0.536,2.705,0.997,5.664,1.436,9.002C1229.924,886.688,1230.458,892.445,1230.899,898.811z" fill="#FFFFFF"/>
				<path d="M1232.051,924.034c0.156,6.097,0.242,12.45,0.242,19.021c0,21.329-0.846,40.604-2.288,54.986      c-0.365,3.602-0.768,6.926-1.21,9.902c-0.285,1.958-0.6,3.741-0.927,5.45h22.208c0.329-1.708,0.645-3.491,0.927-5.45      c0.443-2.977,0.846-6.301,1.212-9.902c1.44-14.381,2.287-33.657,2.287-54.986c0-6.571-0.086-12.924-0.242-19.021H1232.051z" fill="#FFFFFF"/>
				<path d="M1264.002,938.845c0.007,1.405,0.024,2.785,0.024,4.211c0,17.422-0.571,33.424-1.565,46.558h18.748      c0.992-13.134,1.562-29.136,1.562-46.558c0-1.425-0.016-2.806-0.022-4.211H1264.002z" fill="#FFFFFF"/>
				<path d="M1263.431,913.622h18.748c-0.069-1.656-0.134-3.338-0.212-4.938c-0.215-4.3-0.468-8.37-0.756-12.209      h-18.748c0.286,3.84,0.539,7.91,0.756,12.209C1263.298,910.285,1263.362,911.966,1263.431,913.622z" fill="#FFFFFF"/>
				<path d="M1263.977,934.73h18.748c-0.02-1.854-0.055-3.659-0.088-5.473h-18.746      C1263.924,931.071,1263.958,932.876,1263.977,934.73z" fill="#FFFFFF"/>
				<path d="M1306.088,920.692h-14.133c0.217,7.105,0.344,14.571,0.344,22.364c0,7.77-0.115,15.254-0.329,22.341      h14.133c0.212-7.088,0.326-14.571,0.326-22.341C1306.429,935.263,1306.303,927.797,1306.088,920.692z" fill="#FFFFFF"/>
				<path d="M946.137,918.337c-4.38-1.182-8.861-1.504-13.318-1.526c-4.46,0.05-8.927,0.366-13.315,1.526      c4.481,0.658,8.894,0.753,13.32,0.782C937.249,919.073,941.651,918.983,946.137,918.337z" fill="#FFFFFF"/>
				<path d="M972.769,918.151c4.481,0.658,8.896,0.752,13.32,0.78c4.424-0.045,8.827-0.137,13.312-0.78      c-4.381-1.184-8.859-1.507-13.317-1.527C981.626,916.673,977.158,916.99,972.769,918.151z" fill="#FFFFFF"/>
				<path d="M1033.24,916.899c1.744-0.044,3.482-0.015,5.305-0.171c-3.29-1.568-6.939-2.087-10.513-2.084      c-1.791,0.034-3.583,0.159-5.348,0.501c-1.76,0.326-3.509,0.794-5.157,1.583c3.612,0.278,7.055,0.21,10.518,0.224      L1033.24,916.899z" fill="#FFFFFF"/>
				<path d="M1076.416,919.367c-2.732-1.497-5.839-1.991-8.867-1.991c-1.521,0.035-3.039,0.152-4.529,0.479      c-1.486,0.309-2.961,0.757-4.33,1.512c3.076,0.34,5.96,0.3,8.874,0.318C1070.479,919.623,1073.327,919.668,1076.416,919.367z" fill="#FFFFFF"/>
				<path d="M1032.482,964.828c-0.315,0.188-0.627,0.38-0.941,0.568c-0.972,0.583-1.938,1.177-2.839,1.897      c-1.163,0.885-2.339,1.743-3.693,2.258c-1.605-0.443-3.177-1.149-4.833-1.175c-1.674-0.116-3.361-0.126-5.098,0.278l-0.028,0.23      c1.589,0.811,3.229,1.211,4.881,1.502c1.642,0.382,3.369,0.058,5.062,0.023l0.186-0.002l0.058-0.041      c1.237-0.864,2.681-1.33,4.133-1.778c1.466-0.416,2.828-1.042,4.203-1.638c0.995-0.457,1.955-0.986,2.896-1.554      c1.628-0.983,3.174-2.123,4.596-3.509l-0.107-0.207C1037.877,962.231,1035.081,963.341,1032.482,964.828z" fill="#FFFFFF"/>
			</g>
		</g>
	</g>
	<g>
		<g>
			<g>
				<path d="M540.684,1304.556h-27.382v-34.293h-52.9v34.293h-27.647v-88.921h27.647v31.501h52.9v-31.501h27.382      V1304.556z" fill="#FFFFFF"/>
				<path d="M585.484,1304.556h-27.513v-88.921h27.513V1304.556z" fill="#FFFFFF"/>
				<path d="M630.545,1304.556h-27.513v-88.921h27.513V1304.556z" fill="#FFFFFF"/>
				<path d="M758.148,1215.635l-17.811,23.127h-31.766v65.794h-27.515v-65.794H639.32l17.811-23.127H758.148z" fill="#FFFFFF"/>
				<path d="M917.128,1215.635l-17.811,23.127h-54.231v11.563h66.99l-16.748,21.666h-50.242v32.565h-27.647v-88.921      H917.128z" fill="#FFFFFF"/>
				<path d="M954.35,1304.556h-27.513v-88.921h27.513V1304.556z" fill="#FFFFFF"/>
				<path d="M1081.953,1215.635l-17.811,23.127h-31.766v65.794h-27.515v-65.794h-41.736l17.812-23.127H1081.953z" fill="#FFFFFF"/>
				<path d="M1169.421,1301.233l-54.497-48.913v52.236h-24.988v-73.77c0-11.829,7.177-16.613,15.021-16.613      c3.322,0,6.645,0.798,11.031,4.784l54.497,48.913v-52.236h25.12v73.635c0,11.83-7.177,16.748-15.152,16.748      C1176.998,1306.018,1173.674,1305.22,1169.421,1301.233z" fill="#FFFFFF"/>
				<path d="M1315.105,1281.695l-17.677,22.861h-85.599v-88.921h103.01l-17.812,23.127h-57.551v10.634h70.445      l-15.816,20.204h-54.629v12.095H1315.105z" fill="#FFFFFF"/>
				<path d="M1406.957,1251.123c21.666,0,33.363,8.109,33.363,24.325c0,18.209-11.034,29.109-38.148,29.109h-82.808      l17.677-22.861h67.256c6.514,0,9.438-1.861,9.438-6.513c0-4.52-2.925-6.38-9.438-6.38h-48.381      c-22.861,0-33.361-10.236-33.361-25.52c0-16.748,11.164-27.647,38.147-27.647h77.224l-17.677,23.127h-61.674      c-6.379,0-9.438,1.595-9.438,6.115c0,4.519,3.059,6.246,9.438,6.246H1406.957z" fill="#FFFFFF"/>
				<path d="M1534.966,1251.123c21.666,0,33.363,8.109,33.363,24.325c0,18.209-11.033,29.109-38.147,29.109h-82.808      l17.677-22.861h67.256c6.514,0,9.438-1.861,9.438-6.513c0-4.52-2.925-6.38-9.438-6.38h-48.381      c-22.861,0-33.361-10.236-33.361-25.52c0-16.748,11.163-27.647,38.147-27.647h77.224l-17.677,23.127h-61.674      c-6.38,0-9.438,1.595-9.438,6.115c0,4.519,3.058,6.246,9.438,6.246H1534.966z" fill="#FFFFFF"/>
			</g>
		</g>
		<g>
			<g>
				<path d="M556.275,1377.903v-35.854h9.483v14.353h7.911v-14.353h9.534v35.854h-9.534v-12.931h-7.911v12.931      H556.275z" fill="#FF0000"/>
				<path d="M590.305,1377.903v-35.854h9.483v35.854H590.305z" fill="#FF0000"/>
				<path d="M609.473,1373.186c-2.789-3.497-4.21-7.859-4.21-13.084c0-9.026,4.362-18.56,15.619-18.56      c7.049,0,12.02,3.5,13.845,9.635l-8.62,3.296c-1.066-3.094-2.739-4.665-5.124-4.665c-1.571,0-2.839,0.607-3.804,1.774      c-1.013,1.167-1.672,2.484-1.977,3.905c-0.305,1.419-0.457,2.941-0.457,4.514c0,3.497,0.558,6.339,2.637,8.468      c1.015,1.066,2.334,1.621,3.905,1.621c1.979,0,3.449-0.556,4.413-1.621v-3.956h-6.644v-7.1h15.568v13.998      c-2.992,4.616-8.062,7.049-13.54,7.049C616.117,1378.462,612.262,1376.685,609.473,1373.186z" fill="#FF0000"/>
				<path d="M640.713,1377.903v-35.854h9.483v14.353h7.91v-14.353h9.534v35.854h-9.534v-12.931h-7.91v12.931H640.713      z" fill="#FF0000"/>
				<path d="M686.911,1377.903v-35.854h9.483v35.854H686.911z" fill="#FF0000"/>
				<path d="M732.247,1342.05v35.854h-9.077c-0.761-1.37-1.825-3.245-3.245-5.68      c-1.419-2.433-2.688-4.666-3.804-6.694c-1.165-2.029-2.18-4.006-3.144-5.882v18.256h-9.483v-35.854h9.128      c0.66,1.167,1.725,3.094,3.245,5.781c1.472,2.688,2.789,5.073,3.854,7.05c1.066,2.027,2.081,4.006,2.992,5.882v-18.713H732.247z" fill="#FF0000"/>
				<path d="M745.331,1377.903v-27.385h-9.026v-8.469h27.639v8.469h-9.079v27.385H745.331z" fill="#FF0000"/>
				<path d="M767.999,1377.903v-35.854h24.749v8.469h-15.266v5.834h14.048v7.301h-14.048v5.783h15.266v8.468H767.999      z" fill="#FF0000"/>
				<path d="M828.094,1342.05v35.854h-9.077c-0.761-1.37-1.827-3.245-3.245-5.68      c-1.421-2.433-2.69-4.666-3.804-6.694c-1.167-2.029-2.182-4.006-3.144-5.882v18.256h-9.483v-35.854h9.128      c0.66,1.167,1.723,3.094,3.245,5.781c1.47,2.688,2.789,5.073,3.855,7.05c1.063,2.027,2.078,4.006,2.992,5.882v-18.713H828.094z" fill="#FF0000"/>
				<path d="M853.907,1354.728c-0.761-2.89-2.89-4.614-5.578-4.614c-2.284,0-4.21,0.911-4.21,3.094      c0,6.844,18.306-0.051,18.306,13.487c0,3.956-1.318,6.897-3.956,8.876c-2.687,1.977-6.035,2.992-10.039,2.992      c-8.064,0-13.896-4.057-14.759-11.563l8.115-1.723c0.962,3.347,3.144,5.02,6.44,5.02c2.484,0,4.512-1.064,4.512-3.347      c0-1.824-1.876-2.839-4.056-3.093c-2.03-0.254-6.087-0.962-8.166-1.926c-3.6-1.015-5.831-4.768-5.831-9.077      c0-8.064,7.1-11.31,13.591-11.31c6.946,0,12.323,3.246,13.691,10.549L853.907,1354.728z" fill="#FF0000"/>
				<path d="M868.158,1377.903v-35.854h9.483v35.854H868.158z" fill="#FF0000"/>
				<path d="M890.724,1377.903v-27.385h-9.026v-8.469h27.637v8.469h-9.077v27.385H890.724z" fill="#FF0000"/>
				<path d="M921.354,1342.05l6.035,13.338l5.985-13.338h10.801l-12.272,22.516v13.337h-9.534v-13.388      l-12.018-22.466H921.354z" fill="#FF0000"/>
				<path d="M960.404,1377.903v-35.854h9.483v35.854H960.404z" fill="#FF0000"/>
				<path d="M1005.74,1342.05v35.854h-9.077c-0.762-1.37-1.827-3.245-3.246-5.68      c-1.421-2.433-2.689-4.666-3.804-6.694c-1.167-2.029-2.182-4.006-3.144-5.882v18.256h-9.483v-35.854h9.128      c0.66,1.167,1.723,3.094,3.245,5.781c1.47,2.688,2.789,5.073,3.855,7.05c1.064,2.027,2.078,4.006,2.992,5.882v-18.713H1005.74z" fill="#FF0000"/>
				<path d="M1018.825,1377.903v-27.385h-9.026v-8.469h27.637v8.469h-9.077v27.385H1018.825z" fill="#FF0000"/>
				<path d="M1041.493,1377.903v-35.854h24.747v8.469h-15.264v5.834h14.046v7.301h-14.046v5.783h15.264v8.468      H1041.493z" fill="#FF0000"/>
				<path d="M1072.832,1342.05h11.259c3.245,0,5.629,0.152,8.519,1.066c1.421,0.457,2.637,1.064,3.6,1.825      c1.926,1.523,3.296,4.362,3.296,8.064c0,4.512-2.484,8.316-6.542,9.585c1.571,0.66,2.89,1.977,3.753,3.804      c0.862,1.876,1.266,2.941,1.875,4.969c0.203,0.66,0.507,1.724,0.913,3.195c0.406,1.472,0.711,2.586,0.964,3.347h-10.143      c-0.812-3.093-1.37-5.121-1.674-6.187l-0.457-1.167c-0.455-1.419-0.759-2.078-1.469-3.093c-0.711-0.963-1.878-1.369-3.5-1.369      h-0.913v11.815h-9.483V1342.05z M1082.315,1350.114v8.113h1.37c4.21,0,6.288-1.469,6.288-4.362c0-2.484-1.776-3.751-5.324-3.751      H1082.315z" fill="#FF0000"/>
				<path d="M1113.656,1377.903l-11.056-35.854h10.295l6.492,25.61l6.846-25.61h9.991l-11.564,35.854H1113.656z" fill="#FF0000"/>
				<path d="M1135.209,1377.903l11.866-35.854h10.498l11.866,35.854h-10.293l-1.472-5.121h-11.056l-1.419,5.121      H1135.209z M1148.749,1364.616h6.795l-3.398-12.17L1148.749,1364.616z" fill="#FF0000"/>
				<path d="M1174.005,1377.903v-35.854h9.483v27.386h14.097v8.468H1174.005z" fill="#FF0000"/>
				<path d="M1220.355,1377.903v-27.385h-9.027v-8.469h27.64v8.469h-9.079v27.385H1220.355z" fill="#FF0000"/>
				<path d="M1243.023,1342.05h11.259c3.245,0,5.629,0.152,8.519,1.066c1.421,0.457,2.637,1.064,3.6,1.825      c1.927,1.523,3.296,4.362,3.296,8.064c0,4.512-2.484,8.316-6.542,9.585c1.571,0.66,2.89,1.977,3.753,3.804      c0.862,1.876,1.266,2.941,1.875,4.969c0.203,0.66,0.507,1.724,0.913,3.195s0.711,2.586,0.964,3.347h-10.143      c-0.812-3.093-1.37-5.121-1.674-6.187l-0.457-1.167c-0.455-1.419-0.759-2.078-1.469-3.093c-0.711-0.963-1.878-1.369-3.5-1.369      h-0.913v11.815h-9.483V1342.05z M1252.506,1350.114v8.113h1.37c4.21,0,6.288-1.469,6.288-4.362c0-2.484-1.776-3.751-5.324-3.751      H1252.506z" fill="#FF0000"/>
				<path d="M1273.299,1377.903l11.866-35.854h10.498l11.866,35.854h-10.293l-1.472-5.121h-11.056l-1.419,5.121      H1273.299z M1286.84,1364.616h6.796l-3.398-12.17L1286.84,1364.616z" fill="#FF0000"/>
				<path d="M1312.094,1377.903v-35.854h9.483v35.854H1312.094z" fill="#FF0000"/>
				<path d="M1357.43,1342.05v35.854h-9.077c-0.761-1.37-1.824-3.245-3.245-5.68      c-1.419-2.433-2.687-4.666-3.804-6.694c-1.165-2.029-2.18-4.006-3.144-5.882v18.256h-9.483v-35.854h9.128      c0.66,1.167,1.725,3.094,3.245,5.781c1.472,2.688,2.789,5.073,3.855,7.05c1.066,2.027,2.08,4.006,2.992,5.882v-18.713H1357.43z" fill="#FF0000"/>
				<path d="M1364.531,1377.903v-35.854h9.483v35.854H1364.531z" fill="#FF0000"/>
				<path d="M1409.867,1342.05v35.854h-9.077c-0.761-1.37-1.825-3.245-3.246-5.68      c-1.419-2.433-2.687-4.666-3.804-6.694c-1.165-2.029-2.18-4.006-3.144-5.882v18.256h-9.483v-35.854h9.128      c0.66,1.167,1.725,3.094,3.245,5.781c1.472,2.688,2.789,5.073,3.855,7.05c1.066,2.027,2.08,4.006,2.992,5.882v-18.713H1409.867z" fill="#FF0000"/>
				<path d="M1419.553,1373.186c-2.789-3.497-4.207-7.859-4.207-13.084c0-9.026,4.36-18.56,15.619-18.56      c7.049,0,12.018,3.5,13.845,9.635l-8.622,3.296c-1.064-3.094-2.738-4.665-5.121-4.665c-1.573,0-2.84,0.607-3.804,1.774      c-1.015,1.167-1.672,2.484-1.977,3.905c-0.305,1.419-0.457,2.941-0.457,4.514c0,3.497,0.558,6.339,2.637,8.468      c1.015,1.066,2.332,1.621,3.906,1.621c1.976,0,3.448-0.556,4.411-1.621v-3.956h-6.644v-7.1h15.571v13.998      c-2.992,4.616-8.064,7.049-13.541,7.049C1426.197,1378.462,1422.344,1376.685,1419.553,1373.186z" fill="#FF0000"/>
			</g>
		</g>
	</g>
</g>
</svg>