<?xml version="1.0" encoding="utf-8"?>
<!-- Generator: Adobe Illustrator 17.0.0, SVG Export Plug-In . SVG Version: 6.00 Build 0)  -->
<!DOCTYPE svg PUBLIC "-//W3C//DTD SVG 1.1//EN" "http://www.w3.org/Graphics/SVG/1.1/DTD/svg11.dtd">
<svg version="1.1" id="Layer_1" xmlns="http://www.w3.org/2000/svg" xmlns:xlink="http://www.w3.org/1999/xlink" x="0px" y="0px"
	 width="2000px" height="2000px" viewBox="0 0 2000 2000" enable-background="new 0 0 2000 2000" xml:space="preserve">
<g>
	<g>
		<g>
			<g>
				<path fill="#FF0000" d="M877.182,783.647c15.788-11.497,33.364-20.713,52.212-27.111c20.003-6.837,41.452-10.54,63.759-10.54
					h1.813c21.914,0,43.02,3.58,62.704,10.172c18.924,6.326,36.548,15.444,52.407,26.843c14.413,10.343,27.357,22.6,38.484,36.376
					h166.71l-106.236-20.763h-0.025c-17.282-25.467-38.975-47.701-64.004-65.57l28.141-40.201
					c31.181-44.515-0.686-105.674-55.006-105.674H868.678c-54.344,0-86.188,61.16-55.032,105.674l28.583,40.839
					c-24.66,17.77-46.034,39.759-63.096,64.932h-0.025l-93.295,20.763h153.743C850.465,805.88,863.114,793.845,877.182,783.647z
					 M862.574,661.082c-4.583-6.543,0.123-15.562,8.114-15.562h245.419c7.992,0,12.698,9.019,8.114,15.562l-30.468,43.536
					c-30.42-12.623-63.808-19.561-98.787-19.561h-1.813c-35.372,0-69.126,7.108-99.816,19.979L862.574,661.082z"/>
			</g>
			<path fill="#FF0000" d="M1123.901,1087.176c-15.785,11.496-33.361,20.712-52.211,27.111c-20.003,6.84-41.45,10.541-63.757,10.541
				h-1.815c-21.913,0-43.019-3.579-62.702-10.173c-18.923-6.323-36.549-15.444-52.407-26.842
				c-14.414-10.344-27.357-22.6-38.486-36.377h-166.71l106.237,20.763h0.025c17.282,25.469,38.975,47.702,64.003,65.57
				c15.834,11.327,33.017,20.887,51.254,28.437c30.422,12.623,63.807,19.561,98.786,19.561h1.815
				c35.37,0,69.126-7.111,99.815-19.979c18.189-7.623,35.324-17.257,51.109-28.655c24.658-17.772,46.034-39.76,63.096-64.935h0.024
				l93.294-20.763H1161.53C1150.621,1064.943,1137.972,1076.979,1123.901,1087.176z"/>
		</g>
		<g>
			<g>
				<g>
					<path d="M907.994,960.744c-1.973-4.24-3.887-8.556-5.706-12.952h-82.253c0.32,10.504,1.133,19.002,2.184,23.093
						c0.436,1.7,0.915,2.656,1.416,2.656c0.641,0,1.242-1.537,1.77-4.231c0.364-1.861,0.69-4.293,0.969-7.145h82.318
						C908.463,961.689,908.221,961.225,907.994,960.744z"/>
					<path d="M813.097,937.771c0-28.07,3.198-50.825,7.147-50.825c0.246,0,0.491,0.105,0.732,0.279
						c-1.821-19.59-4.671-32.219-7.879-32.219c-5.497,0-9.953,37.056-9.953,82.765c0,45.711,4.456,82.765,9.953,82.765
						c3.208,0,6.057-12.628,7.879-32.221c-0.241,0.175-0.484,0.282-0.732,0.282C816.295,988.597,813.097,965.842,813.097,937.771z"
						/>
					<path d="M819.884,937.328c0,0.15,0.016,4.169,0.047,5.974h80.552c-0.601-1.537-1.194-3.081-1.76-4.644l-0.026-0.054
						c-0.149-0.422-0.296-0.851-0.445-1.276H819.884z"/>
					<path d="M893.401,920.265c-0.41-2.094-0.755-4.24-1.005-6.45l-0.026-0.242v-0.198h-65.996c-0.304-3.104-0.666-5.68-1.069-7.597
						c-0.503-2.395-1.07-3.778-1.67-3.778c-0.501,0-0.98,0.956-1.416,2.656c-0.788,3.066-1.441,8.603-1.855,15.609H893.401z"/>
					<path d="M792.321,890.246h-32.125c-0.157,1.944-0.31,3.926-0.447,5.973h32.121C792.01,894.172,792.161,892.19,792.321,890.246z
						"/>
					<path d="M794.485,870.817c0.855-5.441,1.763-10.026,2.996-14.006c0.732-2.319,1.486-4.409,2.95-6.828
						c0.778-1.285,1.786-2.721,3.602-4.259c0.578-0.477,1.258-0.958,2.039-1.41h-32.047h-0.075c-0.779,0.452-1.461,0.933-2.039,1.41
						c-1.816,1.537-2.823,2.973-3.604,4.259c-1.461,2.419-2.216,4.509-2.947,6.828c-1.234,3.98-2.143,8.565-2.998,14.006
						c-0.117,0.769-0.229,1.566-0.341,2.365h32.123C794.257,872.383,794.367,871.586,794.485,870.817z"/>
					<path d="M802.62,1028.455c-1.839-2.015-2.694-3.703-3.475-5.316c-0.506-1.084-0.906-2.142-1.286-3.2
						c-0.478-1.461-0.906-2.948-1.311-4.51c-0.503-2.116-0.98-4.358-1.41-6.828c-0.579-3.249-1.109-6.877-1.586-10.807
						c-1.888-15.696-3-36.734-3-60.012c0-13.285,0.372-25.821,1.037-37.073h-32.123c-0.664,11.253-1.036,23.789-1.036,37.073
						c0,23.278,1.11,44.316,2.999,60.012c0.478,3.931,1.008,7.559,1.586,10.807c0.431,2.47,0.908,4.712,1.412,6.828
						c0.403,1.562,0.832,3.049,1.309,4.51c0.379,1.058,0.781,2.116,1.287,3.2c0.78,1.613,1.638,3.301,3.477,5.316
						c0.832,0.906,1.963,1.916,3.526,2.795h32.123C804.587,1030.371,803.454,1029.362,802.62,1028.455z"/>
					<path d="M748.222,906.558h-24.24c-0.078,1.958-0.145,3.951-0.208,5.974h24.236
						C748.074,910.509,748.143,908.516,748.222,906.558z"/>
					<path d="M726.644,870.817c-0.688,5.447-1.269,11.73-1.749,18.678h24.239c0.48-6.947,1.062-13.231,1.75-18.678
						c0.477-3.643,0.982-6.873,1.565-9.824h-24.237C727.627,863.944,727.122,867.174,726.644,870.817z"/>
					<path d="M750.107,997.795c-1.573-15.696-2.497-36.734-2.497-60.012c0-7.171,0.097-14.105,0.266-20.76h-24.239
						c-0.169,6.654-0.264,13.588-0.264,20.76c0,23.278,0.923,44.316,2.496,60.012c0.4,3.931,0.838,7.559,1.322,10.807
						c0.31,2.138,0.653,4.083,1.014,5.948h24.236c-0.357-1.865-0.701-3.81-1.01-5.948
						C750.947,1005.353,750.507,1001.726,750.107,997.795z"/>
					<path d="M713.005,933.187h-20.462c-0.009,1.533-0.026,3.04-0.026,4.596c0,19.015,0.624,36.479,1.707,50.813h20.461
						c-1.082-14.334-1.707-31.799-1.707-50.813C712.978,936.227,712.997,934.721,713.005,933.187z"/>
					<path d="M713.859,900.271c0.236-4.693,0.511-9.135,0.825-13.325h-20.461c-0.315,4.191-0.59,8.633-0.823,13.325
						c-0.087,1.746-0.157,3.581-0.233,5.389h20.461C713.703,903.852,713.772,902.017,713.859,900.271z"/>
					<path d="M713.126,922.723h-20.46c-0.038,1.98-0.075,3.95-0.096,5.973h20.46C713.054,926.673,713.092,924.703,713.126,922.723z"
						/>
					<path d="M667.073,913.375c-0.236,7.754-0.376,15.903-0.376,24.408c0,8.48,0.126,16.648,0.359,24.383h15.425
						c-0.232-7.735-0.357-15.903-0.357-24.383c0-8.504,0.139-16.653,0.375-24.408H667.073z"/>
					<path d="M1187.991,855.006c-3.21,0-6.061,12.635-7.881,32.234c0.241-0.176,0.487-0.294,0.733-0.294
						c3.949,0,7.148,22.756,7.148,50.825c0,28.071-3.199,50.826-7.148,50.826c-0.245,0-0.488-0.094-0.73-0.27
						c1.82,19.585,4.671,32.209,7.879,32.209c5.496,0,9.953-37.054,9.953-82.765
						C1197.943,892.062,1193.486,855.006,1187.991,855.006z"/>
					<path d="M1181.203,937.328h-85.201c-0.072-1.552-0.13-3.107-0.223-4.661c-0.224-4.132-0.564-8.267-0.957-12.401h85.9
						c-0.414-7.006-1.068-12.544-1.855-15.609c-0.437-1.7-0.915-2.656-1.415-2.656c-0.983,0-1.872,3.621-2.54,9.502
						c-0.069,0.603-0.136,1.223-0.199,1.872h-71.036c1.454-4.025,2.872-8.059,4.267-12.1c0.277-0.804,0.573-1.6,0.848-2.407
						l2.858-8.266c0.461-1.26,1.079-3.062,1.067-4.743c0.045-1.713-0.318-3.446-1.058-5.021c-0.368-0.787-0.825-1.538-1.367-2.221
						l-1.37-1.735l-2.715-3.429l-5.457-6.84l-10.995-13.611l-11.097-13.52l-5.586-6.731l-2.846-3.381
						c-1.07-1.223-2.21-2.391-3.462-3.43c-4.933-4.228-11.253-6.955-17.867-7.283c-3.292-0.202-6.631,0.2-9.8,1.152
						c-2.438,0.744-4.888,1.906-7.05,3.59c-2.24-1.079-4.435-1.836-6.818-2.41c-3.108-0.728-6.342-1.071-9.58-0.829
						c-3.231,0.224-6.442,1.045-9.37,2.422c-2.291,1.081-4.382,2.499-6.261,4.113c-2.831-2.479-5.915-4.374-9.368-5.745
						c-4.127-1.601-8.728-2.17-13.087-1.366c-4.377,0.733-8.383,2.727-11.8,5.296c-3.091,2.24-5.761,4.93-8.173,7.803
						c-2.495-2.749-5.928-4.491-9.665-4.648c-4.242-0.175-8.288,1.88-11.038,4.941c-4.97,5.915-9.718,11.823-14.456,17.854
						c-4.691,6.042-9.242,12.206-13.594,18.544c-4.298,6.367-8.502,12.857-11.925,19.91c-1.711,3.524-3.272,7.17-4.409,11.105
						c-0.574,1.962-1.016,4.018-1.2,6.21c-0.21,2.259-0.037,4.23,0.115,6.3c0.018,0.162,0.056,0.315,0.075,0.475
						c0.278,2.346,0.696,4.634,1.191,6.89c1.17,5.35,2.823,10.493,4.621,15.541c0.185,0.51,0.388,1.011,0.578,1.521
						c0.747,2.009,1.528,3.999,2.334,5.974c0.612,1.504,1.234,3.002,1.874,4.491c1.359,3.155,2.77,6.284,4.231,9.384
						c0.788,1.674,1.59,3.336,2.403,4.99c2.153,4.372-2.037-2.612,0.367,1.674c-3.755,4.149-16.143,18.034-16.143,18.034
						c-0.812,0.918-1.468,1.982-1.955,3.113c-0.978,2.263-1.213,4.822-0.662,7.209c0.271,1.193,0.729,2.346,1.352,3.399
						c0.315,0.526,0.664,1.027,1.054,1.494l0.838,0.984l12.931,14.829l6.485,7.4l3.371,3.799c1.61,1.678,3.757,2.823,6.023,3.224
						c2.263,0.412,4.651,0.072,6.698-0.923l4.441-2.39l8.629-4.734l8.606-4.773c2.637-1.56,5.401-2.435,8.387-2.651
						c3.463-0.103,7.108-1.109,10.19-2.815c3.126-1.706,5.733-4.225,7.657-7.128c1.951-2.894,3.126-6.255,3.483-9.655
						c0.226-1.696,0.113-3.426,0.026-5.036l-0.252-4.698c6.454,1.38,16.443,6.023,21.189,3.049
						c4.359-2.699,8.565-5.607,12.733-8.563c2.945,0.696,5.925,1.261,8.921,1.735l2.875,0.389c1.339,0.121,2.685-0.128,3.871-0.657
						c1.175-0.476,2.297-1.507,2.777-2.035l1.885-1.882c2.526-2.496,5.112-4.917,7.801-7.21c2.14-1.799,4.344-3.512,6.585-5.182
						c0.317-0.237,0.628-0.478,0.948-0.713c0.315,0.233,0.62,0.477,0.932,0.713c2.8,2.111,5.537,4.314,8.264,6.53
						c0.308,0.281,1.1,0.842,1.741,1.126c0.689,0.325,1.429,0.556,2.196,0.673c1.527,0.232,3.168,0.034,4.619-0.662
						c0.822-0.41,1.181-0.657,1.646-0.914l0.178-0.101l1.19-0.68l2.699-1.62l7.039-4.353h94.374
						c0.497,5.076,1.147,8.762,1.882,10.401c0.275,0.615,0.563,0.974,0.857,0.974c0.5,0,0.978-0.956,1.415-2.657
						c1.052-4.09,1.864-12.588,2.186-23.092h-84.741c-0.017-1.497-0.047-2.992-0.086-4.491h84.929
						C1181.185,941.497,1181.203,937.477,1181.203,937.328z M1049.022,958.784c-1.309,1.153-2.641,2.28-3.99,3.382
						c-1.385,1.132-2.789,2.237-4.217,3.316c-2.835,2.111-5.773,4.09-8.771,5.998c-1.45,0.842-3.238,2.241-3.932,2.193
						c-0.476,0.074-0.941,0-1.349-0.128l-2.296-0.759c-3.112-0.952-6.244-1.816-9.417-2.5l-1.689-8.119l-1.721-8.289l-0.277,8.289
						l-0.292,8.791c-4.33,3.369-8.619,6.794-12.738,10.45c-4.138,3.632-13.833,0.594-18.385,0.252
						c-2.041-4.875-4.965-8.879-8.181-12.58c-1.664-1.882-3.555-3.528-5.559-5.045c-1.067-0.903-2.369-1.656-3.753-2.236
						c-0.136-1.305-0.282-2.604-0.446-3.905c-0.432-3.388-0.975-6.761-1.694-10.101c-0.325-1.504-0.698-3-1.114-4.491
						c-0.18-0.643-0.337-1.291-0.54-1.931c-0.371-1.349-0.766-2.695-1.144-4.043c-0.384-1.37-0.749-2.744-1.054-4.128
						c-0.592-2.749-1.079-5.516-1.414-8.309c-0.185-1.536-0.332-3.079-0.467-4.626c-0.199-2.294-0.37-4.594-0.568-6.89
						c-0.136-1.581-0.292-3.161-0.482-4.731l3.214-10.967c1.067-3.776,1.963-7.594,2.782-11.432
						c0.784-3.801,1.512-7.618,2.12-11.465h4.436c0,0-1.92,15.03-1.92,30.195c0,0,12.41-2.162,34.252-1.19
						c0,0-0.326-17.191,0.944-29.545l2.316,0.035c0.162,2.156,0.399,4.307,0.804,6.438c0.71,3.635,1.926,7.218,2.465,10.873
						c0.565,3.651,0.702,7.344,0.631,11.06c-0.092,3.592-0.06,7.17,0.177,10.73c0.01,0.124,0.005,0.247,0.016,0.37
						c0.09,2.176,0.194,4.349,0.325,6.519c0.091,1.513,0.19,3.022,0.342,4.528c0.493,4.193,1.133,8.373,1.984,12.535
						c0.408,1.997,0.886,3.988,1.42,5.974c0.298,1.109,0.576,2.217,0.92,3.32l0.502-0.044c0.143-1.095,0.222-2.184,0.323-3.276
						c0.187-1.994,0.315-3.988,0.379-5.974c0.143-4.362,0.059-8.706-0.177-13.036c-0.109-1.346-0.25-2.686-0.391-4.026
						c-0.242-2.301-0.516-4.6-0.866-6.89c-0.565-3.687-1.285-7.356-2.209-11.004c-0.867-3.624-1.524-7.265-1.751-10.95
						c-0.255-3.685,0.165-7.439,0.081-11.141c-0.056-1.99-0.249-3.967-0.514-5.936l3.821,0.058c0,0,3.541,21.841,4.19,29.061
						c0,0,10.623-3.407,27.168,0.837c0,0-0.352-24.112-1.001-31.68l2.734,0.045c0.28,3.107,0.656,6.202,1.281,9.264
						c0.953,4.5,2.333,8.946,2.99,13.486c0.711,4.53,0.988,9.117,1.065,13.728l-0.013-0.187c-0.176,1.475-0.295,2.946-0.42,4.419
						c-0.198,2.295-0.349,4.594-0.442,6.89c-0.021,0.468-0.059,0.939-0.074,1.407c-0.199,4.237-0.342,8.474-0.262,12.713
						c0.029,0.98,0.082,1.962,0.118,2.942c0.078,1.992,0.186,3.983,0.319,5.974c0.099,1.499,0.203,2.994,0.34,4.491
						c0.333,3.56,0.802,7.117,1.429,10.677L1049.022,958.784z M1090.074,916.04c0,0-1.049,12.493-1.276,16.626
						c-0.092,1.554-0.15,3.109-0.222,4.661c-0.094,1.992-0.169,3.983-0.225,5.974c-0.038,1.417-0.063,2.832-0.079,4.248
						c-0.118,0.081-0.234,0.162-0.351,0.243c-2.751,1.899-5.465,3.854-8.177,5.812l-10.127,7.475l-1.429,1.086l-1.077,0.819
						l-2.227,1.768c-0.4,0.294-0.898,0.531-1.458,0.575c-0.278,0.024-0.568,0.008-0.852-0.052c-0.338-0.092-0.444-0.088-0.997-0.402
						c-1.67-0.899-3.342-1.797-5-2.709c-2.029-1.113-4.04-2.248-6.008-3.448l-0.268-0.164c0.634-3.587,1.106-7.175,1.441-10.762
						c0.139-1.497,0.243-2.992,0.342-4.491c0.134-1.992,0.242-3.982,0.319-5.974c0.037-0.98,0.09-1.961,0.118-2.942
						c0.079-4.24-0.063-8.476-0.262-12.713c-0.014-0.469-0.052-0.939-0.073-1.407c-0.094-2.295-0.244-4.594-0.442-6.89
						c-0.126-1.473-0.245-2.944-0.421-4.419l-0.013-0.184c-1.08-4.485-1.954-8.995-2.399-13.558
						c-0.499-4.56-0.276-9.21-0.476-13.804c-0.151-2.913-0.521-5.798-0.978-8.669l2.401,0.04c0,0,5.083,21.356,8.76,33.899h24.734
						c0,0-2.511-15.427-5.286-27.061l-0.009-0.001c-3.778-0.394-7.628-0.507-11.482-0.243c3.532-1.039,7.188-1.735,10.898-2.189
						c-0.28-1.12-0.569-2.238-0.863-3.357c-1.883-0.041-3.774-0.007-5.667,0.123c1.757-0.517,3.547-0.94,5.356-1.306
						c-0.372-1.37-0.755-2.723-1.152-4.058c-2.84-0.183-5.699-0.254-8.572-0.056c2.613-0.77,5.305-1.305,8.023-1.747
						c-0.363-1.175-0.736-2.32-1.119-3.447c-3.708-0.378-7.489-0.49-11.272-0.23c3.389-0.997,6.892-1.664,10.448-2.119
						c-0.34-0.929-0.684-1.842-1.037-2.713c-0.768-0.108-1.522-0.269-2.297-0.347c-3.775-0.394-7.627-0.507-11.48-0.243
						c3.713-1.091,7.555-1.83,11.465-2.276c0.341-0.039,0.687-0.06,1.028-0.094c-0.352-0.757-0.712-1.478-1.075-2.158
						c-1.426-0.255-2.852-0.503-4.306-0.651c-3.774-0.394-7.623-0.507-11.48-0.244c1.702-0.499,3.437-0.906,5.186-1.264
						c0.289-0.058,0.578-0.121,0.871-0.177c1.785-0.34,3.587-0.627,5.409-0.834c0.58-0.067,1.166-0.11,1.749-0.162l-7.881-9.277
						c-1.404-1.682-3.167-3.005-5.042-3.884c-1.846-0.884-3.828-1.353-5.703-1.324c-1.045,0-2.093,0.137-3.14,0.412
						c-0.718,0.194-1.267,0.442-1.626,0.607c-0.331,0.194-0.44,0.306-0.469,0.33c-4.52,4.519-11.573,5.318-16.973,1.958
						l-0.028,0.029l-0.359-0.221c-0.413-0.223-1.101-0.551-1.983-0.882c-1.736-0.69-4.16-1.323-6.309-1.295
						c-1.295,0-2.509,0.192-3.748,0.633c-1.213,0.469-2.48,1.157-4.051,2.617c-2.728,2.537-6.392,3.886-10.112,3.664
						c-3.663-0.192-7.106-1.846-9.56-4.574l-0.219-0.192c-0.22-0.247-0.662-0.66-1.241-1.102c-1.13-0.937-2.839-2.013-4.464-2.59
						c-1.102-0.413-2.149-0.608-3.223-0.608c-1.267,0.031-2.647,0.222-4.767,1.352c-2.096,1.129-4.986,3.306-8.404,7.522
						c-2.784,3.415-6.998,5.288-11.407,5.069c-3.747-0.194-7.192-1.901-9.617-4.684c-1.985,2.446-4.806,5.977-8.059,10.202h-0.037
						c0,0-3.643,5.111-8.464,12.317c1.587,0.06,3.166,0.168,4.725,0.35c3.911,0.446,7.751,1.182,11.466,2.276
						c-3.854-0.263-7.703-0.151-11.481,0.242c-2.557,0.259-5.049,0.746-7.495,1.336c-0.273,0.414-0.546,0.827-0.821,1.25
						c1.329,0.068,2.654,0.164,3.964,0.316c3.909,0.447,7.751,1.185,11.465,2.276c-3.854-0.264-7.705-0.15-11.48,0.243
						c-2.199,0.224-4.353,0.607-6.474,1.073c-0.327,0.514-0.657,1.032-0.986,1.552c1.04,0.069,2.077,0.159,3.108,0.281
						c3.909,0.446,7.75,1.182,11.465,2.275c-3.854-0.264-7.706-0.151-11.48,0.243c-1.809,0.183-3.595,0.461-5.355,0.81
						c-0.39,0.63-0.779,1.261-1.166,1.892c0.724,0.058,1.448,0.117,2.169,0.202c3.909,0.446,7.749,1.183,11.465,2.276
						c-3.856-0.264-7.706-0.151-11.481,0.243c-1.408,0.143-2.792,0.387-4.174,0.631c-0.431,0.726-0.858,1.449-1.278,2.17
						c0.367,0.036,0.736,0.058,1.1,0.101c3.909,0.447,7.75,1.183,11.465,2.276c-3.854-0.263-7.705-0.152-11.482,0.242
						c-0.954,0.098-1.883,0.286-2.825,0.428c-0.397,0.705-0.784,1.403-1.16,2.094c2.827-0.067,5.618,0.061,8.37,0.382
						c3.909,0.447,7.749,1.185,11.465,2.277c-3.856-0.264-7.706-0.15-11.481,0.244c-3.775,0.383-7.478,1.127-10.964,2.225
						l-0.016-0.086c-1.264,2.56-2.299,4.918-3.008,6.952c0,0,0.405-0.028,1.107-0.055c4.38-0.24,20.708-0.972,32.114,0.055
						c0,0,6.543-17.326,13.275-30.574l4.011,0.258c-1.19,3.426-2.288,6.877-3.327,10.342c-1.105,3.766-2.13,7.551-2.983,11.38
						l-2.454,11.514l-0.117,0.547l0.084,0.369c0.335,1.527,0.715,3.047,1.112,4.564c0.599,2.3,1.233,4.592,1.84,6.89
						c0.437,1.639,0.859,3.278,1.233,4.926c0.626,2.742,1.097,5.51,1.467,8.298c0.164,1.272,0.268,2.555,0.363,3.838
						c0.113,1.533,0.207,3.066,0.323,4.597c0.018,0.463,0.071,0.918,0.097,1.377c0.094,1.507,0.232,3.002,0.416,4.491
						c0.448,3.638,1.114,7.238,1.903,10.817c0.056,0.255,0.075,0.333,0.221,0.961c-1.369,0.259-4.724,1.572-5.423,1.819
						c-0.754,0.263-1.433,0.559-2.166,0.977c-0.713,0.397-1.088,0.721-1.641,1.096l-6.148,4.348
						c-3.696,2.708-7.423,5.352-11.082,8.104l-14.122,7.054c-2.413,1.084-5.151-0.635-5.229-3.278l-4.953,5.853
						c-1.734,2.049-1.749,5.045-0.037,7.114l17.998,21.721c0,0,10.713-5.215,19.379-9.004l-14.973-11.791
						c-0.965-0.761-1.189-2.127-0.487-3.134c2.531-3.636,9.452-11.676,22.907-15.012c1.147-0.282,2.331,0.367,2.725,1.479
						c1.406,3.981,5.04,13.485,10.682,22.956c5.902-1.309,11.91-3.974,13.533-10.584c-0.083,0.92-0.187,1.829-0.344,2.705
						c-0.6,3.084-1.927,5.99-3.866,8.381c-3.844,4.859-9.804,7.563-15.857,7.384c-3.575-0.005-7.29,0.946-10.406,2.541l-8.894,4.213
						l-8.875,4.253l-4.322,2.081c-0.922,0.389-1.948,0.476-2.903,0.248c-0.957-0.227-1.81-0.754-2.433-1.479l-3.01-3.688
						l-6.235-7.613l-12.501-15.196l-0.743-0.9l-0.351-0.522c-0.202-0.365-0.344-0.754-0.427-1.16
						c-0.174-0.811-0.065-1.679,0.278-2.418c0.172-0.37,0.387-0.717,0.671-1.018l1.636-1.785l3.328-3.624
						c4.455-4.812,8.792-9.732,13.196-14.593l1.943-2.146l-1.456-2.585c-2.134-3.793,2.211,3.666,0.152-0.2
						c-2.522-4.737-4.958-9.526-7.248-14.374c-0.705-1.492-1.4-2.987-2.075-4.491c-0.889-1.979-1.741-3.974-2.571-5.974
						c-0.562-1.355-1.119-2.71-1.651-4.075c-1.647-4.278-3.122-8.629-4.278-12.988c-0.609-2.299-1.119-4.594-1.49-6.89
						c-0.069-0.415-0.172-0.831-0.232-1.246c-0.496-3.601-0.452-6.63,0.48-10.123c0.848-3.426,2.151-6.873,3.64-10.255
						c6.087-13.553,14.285-26.471,22.951-38.891c4.327-6.217,8.887-12.381,13.594-18.233c2.218-2.674,5.652-4.359,9.074-4.253
						c3.412,0.056,6.833,2.004,8.764,4.743l0.897,1.276l0.976-1.175c2.587-3.125,5.451-6.031,8.731-8.309
						c3.274-2.274,6.953-3.899,10.791-4.392c3.833-0.52,7.716,0.264,11.207,1.859c3.453,1.586,6.737,4.091,9.121,6.819l1.471,1.683
						l1.76-1.513c2.046-1.762,4.306-3.206,6.729-4.171c2.428-0.961,5.001-1.456,7.606-1.477c2.603-0.035,5.227,0.402,7.762,1.16
						c2.476,0.76,5.136,1.859,7.129,3.109l2.15,1.35l1.854-1.791c1.609-1.552,3.804-2.609,6.224-3.314
						c2.424-0.706,4.961-0.998,7.487-0.822c5.046,0.331,10.04,2.301,14.002,5.606c1.007,0.804,1.921,1.721,2.786,2.675l2.835,3.264
						l5.733,6.602l11.545,13.145l11.646,13.054l5.864,6.495l2.944,3.236l1.453,1.602c0.396,0.432,0.736,0.915,1.022,1.429
						c0.563,1.033,0.93,2.195,1.015,3.399c0.095,1.256-0.125,2.296-0.55,3.803l-2.215,8.472c-0.416,1.562-0.793,3.137-1.202,4.702
						c-0.908,3.491-1.812,6.983-2.675,10.484c0,0-7.585,0.028-7.849,0h-0.064l-3.329-24.313h-5.086L1090.074,916.04z"/>
					<path d="M1209.498,900.71c0.664,11.253,1.035,23.789,1.035,37.073c0,23.278-1.109,44.316-2.999,60.012
						c-0.479,3.931-1.008,7.559-1.587,10.807c-0.429,2.47-0.908,4.712-1.41,6.828c-0.404,1.562-0.833,3.049-1.311,4.51
						c-0.376,1.058-0.781,2.116-1.285,3.2c-0.781,1.613-1.638,3.301-3.477,5.316c-0.833,0.906-1.964,1.916-3.527,2.795h32.122
						c1.561-0.879,2.695-1.888,3.527-2.795c1.839-2.015,2.696-3.703,3.477-5.316c0.503-1.084,0.907-2.142,1.285-3.2
						c0.477-1.461,0.906-2.948,1.31-4.51c0.504-2.116,0.98-4.358,1.41-6.828c0.581-3.249,1.11-6.877,1.588-10.807
						c1.888-15.696,2.998-36.734,2.998-60.012c0-13.285-0.37-25.821-1.036-37.073H1209.498z"/>
					<path d="M1209.217,896.219h32.122c-0.141-2.047-0.292-4.029-0.45-5.973h-32.122
						C1208.924,892.19,1209.076,894.172,1209.217,896.219z"/>
					<path d="M1200.657,849.983c1.461,2.419,2.215,4.509,2.947,6.828c1.235,3.98,2.141,8.565,2.999,14.006
						c0.116,0.769,0.228,1.566,0.34,2.365h32.122c-0.112-0.799-0.224-1.596-0.34-2.365c-0.856-5.441-1.762-10.026-3-14.006
						c-0.728-2.319-1.484-4.409-2.947-6.828c-0.78-1.285-1.787-2.721-3.604-4.259c-0.578-0.477-1.259-0.958-2.039-1.41h-0.075
						h-32.047c0.78,0.452,1.461,0.933,2.039,1.41C1198.869,847.262,1199.875,848.698,1200.657,849.983z"/>
					<path d="M1253.076,912.532h24.24c-0.064-2.023-0.134-4.017-0.213-5.974h-24.237
						C1252.943,908.516,1253.013,910.509,1253.076,912.532z"/>
					<path d="M1251.953,889.495h24.239c-0.48-6.947-1.062-13.231-1.751-18.678c-0.478-3.643-0.98-6.873-1.566-9.824h-24.24
						c0.585,2.952,1.088,6.182,1.567,9.824C1250.89,876.264,1251.472,882.547,1251.953,889.495z"/>
					<path d="M1253.211,917.023c0.17,6.654,0.264,13.588,0.264,20.76c0,23.278-0.923,44.316-2.497,60.012
						c-0.399,3.931-0.839,7.559-1.32,10.807c-0.311,2.138-0.654,4.083-1.011,5.948h24.237c0.359-1.865,0.704-3.81,1.011-5.948
						c0.483-3.249,0.923-6.877,1.323-10.807c1.572-15.696,2.496-36.734,2.496-60.012c0-7.171-0.094-14.105-0.264-20.76H1253.211z"/>
					<path d="M1288.082,933.187c0.007,1.533,0.026,3.04,0.026,4.596c0,19.015-0.623,36.479-1.708,50.813h20.462
						c1.083-14.334,1.705-31.799,1.705-50.813c0-1.556-0.018-3.062-0.024-4.596H1288.082z"/>
					<path d="M1287.459,905.66h20.461c-0.075-1.808-0.146-3.643-0.232-5.389c-0.235-4.693-0.511-9.135-0.825-13.325h-20.461
						c0.312,4.191,0.588,8.633,0.825,13.325C1287.314,902.017,1287.384,903.852,1287.459,905.66z"/>
					<path d="M1288.055,928.696h20.461c-0.021-2.023-0.059-3.993-0.095-5.973h-20.459
						C1287.997,924.703,1288.034,926.673,1288.055,928.696z"/>
					<path d="M1334.015,913.375h-15.425c0.236,7.754,0.375,15.903,0.375,24.408c0,8.48-0.126,16.648-0.359,24.383h15.425
						c0.232-7.735,0.356-15.903,0.356-24.383C1334.387,929.279,1334.25,921.13,1334.015,913.375z"/>
					<path d="M941.164,910.805c-4.78-1.29-9.671-1.641-14.535-1.665c-4.867,0.055-9.743,0.4-14.532,1.665
						c4.89,0.719,9.707,0.822,14.537,0.853C931.464,911.608,936.268,911.51,941.164,910.805z"/>
					<path d="M970.231,910.602c4.89,0.718,9.709,0.821,14.537,0.852c4.829-0.049,9.633-0.15,14.529-0.852
						c-4.781-1.293-9.669-1.645-14.534-1.666C979.897,908.989,975.02,909.335,970.231,910.602z"/>
					<path d="M1036.228,909.236c1.903-0.048,3.8-0.016,5.79-0.187c-3.591-1.711-7.574-2.278-11.474-2.274
						c-1.955,0.037-3.911,0.173-5.837,0.547c-1.921,0.355-3.829,0.867-5.628,1.727c3.943,0.304,7.699,0.229,11.48,0.244
						L1036.228,909.236z"/>
					<path d="M1083.351,911.93c-2.981-1.634-6.373-2.173-9.677-2.173c-1.66,0.038-3.317,0.166-4.943,0.522
						c-1.622,0.338-3.231,0.826-4.725,1.651c3.357,0.371,6.504,0.327,9.685,0.347
						C1076.871,912.209,1079.979,912.258,1083.351,911.93z"/>
					<path d="M1035.401,961.546c-0.344,0.205-0.685,0.414-1.027,0.62c-1.06,0.637-2.115,1.284-3.098,2.071
						c-1.27,0.965-2.552,1.902-4.03,2.465c-1.752-0.484-3.467-1.254-5.275-1.283c-1.827-0.126-3.668-0.137-5.564,0.303l-0.031,0.251
						c1.734,0.885,3.524,1.321,5.327,1.639c1.792,0.417,3.677,0.063,5.524,0.026l0.203-0.003l0.063-0.044
						c1.35-0.942,2.926-1.451,4.511-1.941c1.6-0.454,3.087-1.137,4.587-1.787c1.086-0.499,2.134-1.077,3.161-1.696
						c1.777-1.073,3.464-2.318,5.016-3.829l-0.116-0.226C1041.289,958.712,1038.238,959.922,1035.401,961.546z"/>
				</g>
			</g>
		</g>
	</g>
	<g>
		<g>
			<g>
				<path d="M498.653,1332.325h-29.884v-37.427h-57.735v37.427H380.86v-97.049h30.174v34.381h57.735v-34.381h29.884V1332.325z"/>
				<path d="M547.548,1332.325H517.52v-97.049h30.028V1332.325z"/>
				<path d="M596.727,1332.325h-30.028v-97.049h30.028V1332.325z"/>
				<path d="M735.993,1235.276l-19.439,25.241h-34.669v71.808h-30.03v-71.808h-45.55l19.439-25.241H735.993z"/>
				<path d="M909.504,1235.276l-19.439,25.241h-59.188v12.62h73.113l-18.278,23.646h-54.835v35.542h-30.174v-97.049H909.504z"/>
				<path d="M950.128,1332.325H920.1v-97.049h30.028V1332.325z"/>
				<path d="M1089.394,1235.276l-19.439,25.241h-34.669v71.808h-30.03v-71.808h-45.551l19.44-25.241H1089.394z"/>
				<path d="M1184.857,1328.699l-59.478-53.384v57.01h-27.272v-80.512c0-12.91,7.833-18.132,16.394-18.132
					c3.626,0,7.252,0.87,12.04,5.221l59.478,53.384v-57.01h27.416v80.365c0,12.911-7.833,18.278-16.537,18.278
					C1193.126,1333.92,1189.498,1333.05,1184.857,1328.699z"/>
				<path d="M1343.856,1307.374l-19.293,24.951h-93.422v-97.049h112.425l-19.439,25.241h-62.812v11.606h76.884l-17.262,22.051
					h-59.622v13.2H1343.856z"/>
				<path d="M1444.104,1274.008c23.646,0,36.413,8.85,36.413,26.548c0,19.873-12.042,31.769-41.634,31.769h-90.376l19.293-24.951
					h73.403c7.109,0,10.301-2.031,10.301-7.108c0-4.933-3.192-6.963-10.301-6.963h-52.803c-24.951,0-36.41-11.171-36.41-27.852
					c0-18.278,12.184-30.174,41.634-30.174h84.282l-19.293,25.241h-67.311c-6.962,0-10.301,1.741-10.301,6.674
					c0,4.932,3.339,6.816,10.301,6.816H1444.104z"/>
				<path d="M1583.813,1274.008c23.646,0,36.412,8.85,36.412,26.548c0,19.873-12.042,31.769-41.634,31.769h-90.376l19.293-24.951
					h73.403c7.109,0,10.301-2.031,10.301-7.108c0-4.933-3.192-6.963-10.301-6.963h-52.803c-24.951,0-36.41-11.171-36.41-27.852
					c0-18.278,12.184-30.174,41.634-30.174h84.283l-19.293,25.241h-67.311c-6.963,0-10.301,1.741-10.301,6.674
					c0,4.932,3.338,6.816,10.301,6.816H1583.813z"/>
			</g>
		</g>
		<g>
			<g>
				<path fill="#FF0000" d="M515.669,1412.376v-39.131h10.35v15.664h8.635v-15.664h10.406v39.131h-10.406v-14.113h-8.635v14.113
					H515.669z"/>
				<path fill="#FF0000" d="M552.808,1412.376v-39.131h10.349v39.131H552.808z"/>
				<path fill="#FF0000" d="M573.729,1407.228c-3.043-3.817-4.594-8.578-4.594-14.28c0-9.851,4.761-20.257,17.047-20.257
					c7.693,0,13.119,3.82,15.111,10.516l-9.408,3.598c-1.163-3.376-2.989-5.091-5.592-5.091c-1.714,0-3.099,0.662-4.151,1.937
					c-1.105,1.274-1.825,2.712-2.157,4.262c-0.332,1.548-0.499,3.21-0.499,4.927c0,3.817,0.609,6.918,2.878,9.242
					c1.107,1.163,2.547,1.77,4.262,1.77c2.16,0,3.764-0.607,4.816-1.77v-4.318h-7.251v-7.749h16.991v15.277
					c-3.265,5.038-8.799,7.693-14.778,7.693C580.98,1412.986,576.773,1411.047,573.729,1407.228z"/>
				<path fill="#FF0000" d="M607.824,1412.376v-39.131h10.35v15.664h8.633v-15.664h10.406v39.131h-10.406v-14.113h-8.633v14.113
					H607.824z"/>
				<path fill="#FF0000" d="M658.245,1412.376v-39.131h10.349v39.131H658.245z"/>
				<path fill="#FF0000" d="M707.725,1373.245v39.131h-9.907c-0.831-1.495-1.992-3.542-3.542-6.199
					c-1.549-2.656-2.933-5.093-4.151-7.306c-1.272-2.215-2.379-4.373-3.431-6.42v19.924h-10.35v-39.131h9.963
					c0.72,1.274,1.883,3.377,3.542,6.309c1.606,2.933,3.043,5.536,4.206,7.694c1.163,2.213,2.271,4.373,3.266,6.42v-20.423H707.725z
					"/>
				<path fill="#FF0000" d="M722.004,1412.376v-29.888h-9.851v-9.243h30.165v9.243h-9.909v29.888H722.004z"/>
				<path fill="#FF0000" d="M746.745,1412.376v-39.131h27.011v9.243h-16.661v6.367h15.332v7.968h-15.332v6.311h16.661v9.242H746.745
					z"/>
				<path fill="#FF0000" d="M812.332,1373.245v39.131h-9.907c-0.831-1.495-1.994-3.542-3.542-6.199
					c-1.55-2.656-2.935-5.093-4.151-7.306c-1.274-2.215-2.382-4.373-3.431-6.42v19.924h-10.35v-39.131h9.963
					c0.72,1.274,1.88,3.377,3.542,6.309c1.604,2.933,3.044,5.536,4.207,7.694c1.16,2.213,2.268,4.373,3.265,6.42v-20.423H812.332z"
					/>
				<path fill="#FF0000" d="M840.504,1387.083c-0.831-3.155-3.155-5.036-6.087-5.036c-2.492,0-4.594,0.995-4.594,3.377
					c0,7.47,19.979-0.056,19.979,14.72c0,4.318-1.438,7.528-4.318,9.688c-2.933,2.158-6.586,3.265-10.957,3.265
					c-8.802,0-15.166-4.428-16.108-12.62l8.857-1.881c1.05,3.653,3.431,5.479,7.029,5.479c2.712,0,4.924-1.161,4.924-3.653
					c0-1.991-2.047-3.099-4.426-3.376c-2.215-0.277-6.644-1.05-8.912-2.102c-3.93-1.107-6.364-5.204-6.364-9.907
					c0-8.801,7.749-12.344,14.833-12.344c7.581,0,13.449,3.543,14.942,11.513L840.504,1387.083z"/>
				<path fill="#FF0000" d="M856.058,1412.376v-39.131h10.349v39.131H856.058z"/>
				<path fill="#FF0000" d="M880.687,1412.376v-29.888h-9.851v-9.243h30.163v9.243h-9.906v29.888H880.687z"/>
				<path fill="#FF0000" d="M914.116,1373.245l6.586,14.557l6.532-14.557h11.788l-13.394,24.575v14.556h-10.405v-14.612
					l-13.117-24.519H914.116z"/>
				<path fill="#FF0000" d="M956.735,1412.376v-39.131h10.35v39.131H956.735z"/>
				<path fill="#FF0000" d="M1006.215,1373.245v39.131h-9.906c-0.831-1.495-1.994-3.542-3.543-6.199
					c-1.55-2.656-2.935-5.093-4.151-7.306c-1.274-2.215-2.381-4.373-3.431-6.42v19.924h-10.349v-39.131h9.962
					c0.72,1.274,1.881,3.377,3.542,6.309c1.604,2.933,3.044,5.536,4.207,7.694c1.161,2.213,2.268,4.373,3.265,6.42v-20.423H1006.215
					z"/>
				<path fill="#FF0000" d="M1020.496,1412.376v-29.888h-9.851v-9.243h30.163v9.243h-9.907v29.888H1020.496z"/>
				<path fill="#FF0000" d="M1045.236,1412.376v-39.131h27.009v9.243h-16.659v6.367h15.33v7.968h-15.33v6.311h16.659v9.242H1045.236
					z"/>
				<path fill="#FF0000" d="M1079.44,1373.245h12.288c3.542,0,6.143,0.166,9.298,1.163c1.55,0.499,2.878,1.161,3.929,1.992
					c2.102,1.662,3.598,4.761,3.598,8.802c0,4.924-2.712,9.076-7.14,10.461c1.715,0.72,3.155,2.158,4.096,4.151
					c0.941,2.047,1.382,3.21,2.047,5.423c0.222,0.72,0.554,1.881,0.997,3.487c0.443,1.606,0.776,2.822,1.052,3.653h-11.07
					c-0.886-3.376-1.495-5.589-1.827-6.752l-0.499-1.274c-0.496-1.549-0.829-2.268-1.604-3.376c-0.776-1.05-2.049-1.494-3.82-1.494
					h-0.997v12.895h-10.349V1373.245z M1089.789,1382.047v8.855h1.495c4.594,0,6.863-1.604,6.863-4.761
					c0-2.712-1.939-4.094-5.811-4.094H1089.789z"/>
				<path fill="#FF0000" d="M1123.995,1412.376l-12.066-39.131h11.235l7.085,27.95l7.472-27.95h10.904l-12.62,39.131H1123.995z"/>
				<path fill="#FF0000" d="M1147.517,1412.376l12.95-39.131h11.457l12.951,39.131h-11.234l-1.606-5.589h-12.066l-1.548,5.589
					H1147.517z M1162.296,1397.875h7.417l-3.708-13.283L1162.296,1397.875z"/>
				<path fill="#FF0000" d="M1189.86,1412.376v-39.131h10.35v29.889h15.385v9.242H1189.86z"/>
				<path fill="#FF0000" d="M1240.446,1412.376v-29.888h-9.852v-9.243h30.166v9.243h-9.909v29.888H1240.446z"/>
				<path fill="#FF0000" d="M1265.186,1373.245h12.288c3.542,0,6.143,0.166,9.298,1.163c1.551,0.499,2.878,1.161,3.93,1.992
					c2.103,1.662,3.598,4.761,3.598,8.802c0,4.924-2.712,9.076-7.14,10.461c1.715,0.72,3.155,2.158,4.096,4.151
					c0.941,2.047,1.382,3.21,2.047,5.423c0.222,0.72,0.554,1.881,0.997,3.487c0.443,1.606,0.776,2.822,1.052,3.653h-11.07
					c-0.886-3.376-1.495-5.589-1.827-6.752l-0.499-1.274c-0.496-1.549-0.829-2.268-1.604-3.376c-0.776-1.05-2.049-1.494-3.82-1.494
					h-0.997v12.895h-10.349V1373.245z M1275.536,1382.047v8.855h1.495c4.594,0,6.863-1.604,6.863-4.761
					c0-2.712-1.939-4.094-5.811-4.094H1275.536z"/>
				<path fill="#FF0000" d="M1298.229,1412.376l12.95-39.131h11.457l12.951,39.131h-11.234l-1.606-5.589h-12.066l-1.549,5.589
					H1298.229z M1313.008,1397.875h7.417l-3.708-13.283L1313.008,1397.875z"/>
				<path fill="#FF0000" d="M1340.57,1412.376v-39.131h10.35v39.131H1340.57z"/>
				<path fill="#FF0000" d="M1390.05,1373.245v39.131h-9.907c-0.831-1.495-1.991-3.542-3.542-6.199
					c-1.548-2.656-2.933-5.093-4.151-7.306c-1.272-2.215-2.379-4.373-3.431-6.42v19.924h-10.349v-39.131h9.962
					c0.72,1.274,1.883,3.377,3.542,6.309c1.606,2.933,3.044,5.536,4.207,7.694c1.163,2.213,2.27,4.373,3.265,6.42v-20.423H1390.05z"
					/>
				<path fill="#FF0000" d="M1397.799,1412.376v-39.131h10.35v39.131H1397.799z"/>
				<path fill="#FF0000" d="M1447.28,1373.245v39.131h-9.906c-0.831-1.495-1.992-3.542-3.543-6.199
					c-1.549-2.656-2.933-5.093-4.151-7.306c-1.272-2.215-2.379-4.373-3.432-6.42v19.924h-10.349v-39.131h9.962
					c0.72,1.274,1.883,3.377,3.542,6.309c1.606,2.933,3.044,5.536,4.207,7.694c1.163,2.213,2.27,4.373,3.265,6.42v-20.423H1447.28z"
					/>
				<path fill="#FF0000" d="M1457.851,1407.228c-3.043-3.817-4.592-8.578-4.592-14.28c0-9.851,4.758-20.257,17.047-20.257
					c7.693,0,13.117,3.82,15.11,10.516l-9.41,3.598c-1.161-3.376-2.988-5.091-5.589-5.091c-1.717,0-3.1,0.662-4.151,1.937
					c-1.108,1.274-1.825,2.712-2.158,4.262c-0.332,1.548-0.499,3.21-0.499,4.927c0,3.817,0.609,6.918,2.878,9.242
					c1.108,1.163,2.545,1.77,4.263,1.77c2.157,0,3.763-0.607,4.814-1.77v-4.318h-7.251v-7.749h16.994v15.277
					c-3.265,5.038-8.802,7.693-14.778,7.693C1465.102,1412.986,1460.897,1411.047,1457.851,1407.228z"/>
			</g>
		</g>
	</g>
</g>
</svg>
